<svg width="30" height="22" viewBox="0 0 30 22" fill="none" xmlns="http://www.w3.org/2000/svg">
<path d="M26.6667 0H3.33334C3.1625 0 2.99417 0.0125001 2.83 0.0375001L2.82667 1.49917L0.55167 1.49583C0.190959 2.0407 -0.000943369 2.67989 3.48702e-06 3.33333V18.3333C3.48702e-06 19.2174 0.351193 20.0652 0.976314 20.6904C1.60144 21.3155 2.44928 21.6667 3.33334 21.6667H26.6667C27.5507 21.6667 28.3986 21.3155 29.0237 20.6904C29.6488 20.0652 30 19.2174 30 18.3333V3.33333C30 2.44928 29.6488 1.60143 29.0237 0.976311C28.3986 0.351189 27.5507 0 26.6667 0Z" fill="#00247D"/>
<path d="M7.5 17.519L6.48167 18.4598L6.5825 17.0765L5.21167 16.8673L6.35584 16.084L5.665 14.8815L6.99084 15.2881L7.5 13.9973L8.01 15.2881L9.33584 14.8815L8.64417 16.084L9.78917 16.8673L8.41834 17.0765L8.51917 18.4598L7.5 17.519ZM23.2917 3.80148L22.6258 4.41648L22.6917 3.51148L21.7942 3.37481L22.5433 2.86231L22.0917 2.07565L22.9583 2.34148L23.2917 1.49731L23.6258 2.34148L24.4933 2.07565L24.0408 2.86231L24.7892 3.37481L23.8925 3.51148L23.9583 4.41648L23.2917 3.80148ZM19.9583 8.80148L19.2925 9.41731L19.3583 8.51231L18.4608 8.37565L19.21 7.86231L18.7583 7.07565L19.625 7.34148L19.9583 6.49731L20.2925 7.34148L21.16 7.07565L20.7075 7.86231L21.4558 8.37565L20.5592 8.51231L20.625 9.41731L19.9583 8.80148ZM27.4583 7.13481L26.7925 7.75065L26.8583 6.84565L25.9608 6.70898L26.71 6.19565L26.2583 5.40898L27.125 5.67481L27.4583 4.83065L27.7925 5.67481L28.66 5.40898L28.2075 6.19565L28.9558 6.70898L28.0592 6.84565L28.125 7.75065L27.4583 7.13481ZM23.2917 18.8015L22.6258 19.4173L22.6917 18.5123L21.7942 18.3756L22.5433 17.8623L22.0917 17.0756L22.9583 17.3415L23.2917 16.4973L23.6258 17.3415L24.4933 17.0756L24.0408 17.8623L24.7892 18.3756L23.8925 18.5123L23.9583 19.4173L23.2917 18.8015ZM25.8333 9.16648L26.0783 9.66315L26.6258 9.74231L26.23 10.1281L26.3233 10.674L25.8333 10.4165L25.3433 10.674L25.4367 10.1281L25.0408 9.74231L25.5883 9.66315L25.8333 9.16648Z" fill="white"/>
<path d="M15.8333 10.8333V0H3.33334C3.06667 0 2.83 0.0375001 2.83 0.0375001L2.82667 1.49917L0.551669 1.49583C0.551669 1.49583 0.516669 1.545 0.445836 1.66667C0.153097 2.17329 -0.000697038 2.74822 2.37494e-06 3.33333V10.8333H15.8333Z" fill="#00247D"/>
<path d="M15.8333 0H13.8908L10 2.72417V0H5.83333V2.14083L2.83 0.0375001C2.32904 0.112333 1.85218 0.301996 1.43667 0.591667L5.355 3.33333H3.90833L0.805833 1.15917C0.714339 1.26611 0.629459 1.37854 0.551667 1.49583L3.1775 3.33333H0V7.5H3.2375L0 9.805V10.8333H2.77667L5.83333 8.69333V10.8333H10V8.10917L13.89 10.8333H15.8333V9.1425L13.4875 7.5H15.8333V3.33333H13.4883L15.8333 1.69083V0Z" fill="white"/>
<path d="M9.16667 0H6.66667V4.16667H0V6.66667H6.66667V10.8333H9.16667V6.66667H15.8333V4.16667H9.16667V0Z" fill="#CF1B2B"/>
<path d="M15.8334 0H14.6159L10 3.2325V3.33333H11.3092L15.8334 0.165V0ZM1.43669 0.591667C1.20339 0.753555 0.99144 0.944227 0.805861 1.15917L3.90836 3.33333H5.35419L1.43669 0.591667ZM5.36419 7.5L0.611694 10.8333H2.05086L5.83336 8.185V7.5H5.36419ZM15.8334 10.6683V9.65167L12.7609 7.5H11.3084L15.8334 10.6683Z" fill="#CF1B2B"/>
</svg>
