<svg width="30" height="20" viewBox="0 0 30 20" fill="none" xmlns="http://www.w3.org/2000/svg">
<path d="M27.7532 0H2.24678C1.00588 0 0 1.00588 0 2.24678V17.4084C0 18.6493 1.00588 19.6552 2.24678 19.6552H27.7532C28.9941 19.6552 30 18.6493 30 17.4084V2.24678C30 1.00588 28.9941 0 27.7532 0Z" fill="#41479B"/>
<path d="M29.9689 1.87541C29.7918 0.811406 28.8675 0 27.7532 0H27.1686L17.5862 6.27814V5.85616e-05H12.4138V6.2782L2.83137 5.85616e-05H2.24678C1.1325 5.85616e-05 0.208184 0.811406 0.0311133 1.87547L8.22123 7.24148H0V12.4139H8.22123L0.0311133 17.7798C0.208184 18.8438 1.1325 19.6552 2.24678 19.6552H2.83137L12.4138 13.3771V19.6552H17.5862V13.3771L27.1686 19.6552H27.7532C28.8675 19.6552 29.7918 18.8439 29.9689 17.7798L21.7788 12.4138H30V7.24137H21.7788L29.9689 1.87541Z" fill="white"/>
<path d="M16.5517 0H13.4483V8.27584H0V11.3793H13.4483V19.6552H16.5517V11.3793H30V8.27584H16.5517V0Z" fill="#FF4B55"/>
<path d="M1.45271 19.5103L12.3853 12.4138H10.4852L0.540466 18.8692C0.783806 19.1532 1.09652 19.3758 1.45271 19.5103Z" fill="#FF4B55"/>
<path d="M20.2962 12.4138H18.3961L28.9849 19.2872C29.2812 19.0926 29.5285 18.8297 29.7049 18.521L20.2962 12.4138Z" fill="#FF4B55"/>
<path d="M0.237244 1.24217L9.47924 7.24141H11.3793L0.906736 0.443359C0.625544 0.652656 0.395447 0.926289 0.237244 1.24217Z" fill="#FF4B55"/>
<path d="M19.4863 7.24131L29.4493 0.774023C29.2032 0.490957 28.8881 0.269707 28.5294 0.137695L17.5862 7.24131H19.4863Z" fill="#FF4B55"/>
</svg>
