<svg width="30" height="20" viewBox="0 0 30 20" fill="none" xmlns="http://www.w3.org/2000/svg">
<path d="M23.2758 0H6.72424V19.6553H23.2758V0Z" fill="white"/>
<path d="M2.24678 0C1.00588 0 0 1.00588 0 2.24678V17.4084C0 18.6493 1.00588 19.6552 2.24678 19.6552H6.72416V0H2.24678Z" fill="#FF4B55"/>
<path d="M27.7532 0H23.2758V19.6552H27.7532C28.9941 19.6552 30 18.6493 30 17.4084V2.24678C30 1.00588 28.9941 0 27.7532 0Z" fill="#FF4B55"/>
<path d="M18.1388 12.0987L21.2081 10.3448L20.5038 9.99269C20.3063 9.8939 20.1932 9.68062 20.2225 9.46166L20.4516 7.74357L19.1522 8.12162C18.8651 8.20517 18.5672 8.02857 18.5027 7.73671L18.3782 7.17421L17.1581 8.60214C16.989 8.80007 16.6667 8.6489 16.7109 8.39232L17.2319 5.36255L16.4342 5.5807C16.2012 5.64445 15.9551 5.53839 15.8415 5.32523L15.0014 3.75076V3.74841L15.0008 3.74959L15.0002 3.74841V3.75076L14.1601 5.32523C14.0464 5.53833 13.8003 5.64439 13.5673 5.5807L12.7695 5.36255L13.2906 8.39232C13.3347 8.64884 13.0124 8.80007 12.8433 8.6022L11.6232 7.17427L11.4987 7.73677C11.4342 8.02869 11.1363 8.20517 10.8492 8.12167L9.54978 7.74363L9.77894 9.46171C9.80818 9.68062 9.69509 9.89396 9.49757 9.99275L8.79327 10.3448L11.8626 12.0987C12.1805 12.2804 12.3199 12.6657 12.1916 13.0087L11.9292 13.7105L14.5592 13.4859C14.7047 13.4735 14.8286 13.5907 14.8243 13.7367L14.7415 16.5517H15.2587L15.1758 13.7365C15.1715 13.5905 15.2954 13.4734 15.4409 13.4858L18.0721 13.7105L17.8097 13.0087C17.6816 12.6657 17.8209 12.2803 18.1388 12.0987Z" fill="#FF4B55"/>
</svg>
