<svg width="30" height="15" viewBox="0 0 30 15" fill="none" xmlns="http://www.w3.org/2000/svg">
<path d="M3.31324 11.07C2.84658 11.07 2.42658 10.99 2.05324 10.83C1.67991 10.6633 1.38658 10.43 1.17324 10.13C0.959909 9.83 0.853242 9.48 0.853242 9.08H2.07324C2.09991 9.38 2.21658 9.62667 2.42324 9.82C2.63658 10.0133 2.93324 10.11 3.31324 10.11C3.70658 10.11 4.01324 10.0167 4.23324 9.83C4.45324 9.63667 4.56324 9.39 4.56324 9.09C4.56324 8.85667 4.49324 8.66667 4.35324 8.52C4.21991 8.37333 4.04991 8.26 3.84324 8.18C3.64324 8.1 3.36324 8.01333 3.00324 7.92C2.54991 7.8 2.17991 7.68 1.89324 7.56C1.61324 7.43333 1.37324 7.24 1.17324 6.98C0.973242 6.72 0.873242 6.37333 0.873242 5.94C0.873242 5.54 0.973242 5.19 1.17324 4.89C1.37324 4.59 1.65324 4.36 2.01324 4.2C2.37324 4.04 2.78991 3.96 3.26324 3.96C3.93658 3.96 4.48658 4.13 4.91324 4.47C5.34658 4.80333 5.58658 5.26333 5.63324 5.85H4.37324C4.35324 5.59667 4.23324 5.38 4.01324 5.2C3.79324 5.02 3.50324 4.93 3.14324 4.93C2.81658 4.93 2.54991 5.01333 2.34324 5.18C2.13658 5.34667 2.03324 5.58667 2.03324 5.9C2.03324 6.11333 2.09658 6.29 2.22324 6.43C2.35658 6.56333 2.52324 6.67 2.72324 6.75C2.92324 6.83 3.19658 6.91667 3.54324 7.01C4.00324 7.13667 4.37658 7.26333 4.66324 7.39C4.95658 7.51667 5.20324 7.71333 5.40324 7.98C5.60991 8.24 5.71324 8.59 5.71324 9.03C5.71324 9.38333 5.61658 9.71667 5.42324 10.03C5.23658 10.3433 4.95991 10.5967 4.59324 10.79C4.23324 10.9767 3.80658 11.07 3.31324 11.07ZM12.9784 4.05V11H11.8384V6.24L9.7184 11H8.9284L6.7984 6.24V11H5.6584V4.05H6.8884L9.3284 9.5L11.7584 4.05H12.9784Z" fill="white"/>
<path d="M17.753 7.43C18.1263 7.49667 18.443 7.69333 18.703 8.02C18.963 8.34667 19.093 8.71667 19.093 9.13C19.093 9.48333 18.9997 9.80333 18.813 10.09C18.633 10.37 18.3697 10.5933 18.023 10.76C17.6763 10.92 17.273 11 16.813 11H14.033V4.05H16.683C17.1563 4.05 17.563 4.13 17.903 4.29C18.243 4.45 18.4997 4.66667 18.673 4.94C18.8463 5.20667 18.933 5.50667 18.933 5.84C18.933 6.24 18.8263 6.57333 18.613 6.84C18.3997 7.10667 18.113 7.30333 17.753 7.43ZM15.173 6.97H16.583C16.9563 6.97 17.2463 6.88667 17.453 6.72C17.6663 6.54667 17.773 6.3 17.773 5.98C17.773 5.66667 17.6663 5.42333 17.453 5.25C17.2463 5.07 16.9563 4.98 16.583 4.98H15.173V6.97ZM16.713 10.07C17.0997 10.07 17.403 9.97667 17.623 9.79C17.843 9.60333 17.953 9.34333 17.953 9.01C17.953 8.67 17.8363 8.4 17.603 8.2C17.3697 8 17.0597 7.9 16.673 7.9H15.173V10.07H16.713ZM24.3418 11H23.2018L19.7718 5.81V11H18.6318V4.04H19.7718L23.2018 9.22V4.04H24.3418V11ZM27.9689 11L25.2789 7.89V11H24.1389V4.05H25.2789V7.22L27.9789 4.05H29.4089L26.3889 7.53L29.4589 11H27.9689Z" fill="white"/>
</svg>
