<svg width="30" height="7" viewBox="0 0 30 7" fill="none" xmlns="http://www.w3.org/2000/svg">
<path fill-rule="evenodd" clip-rule="evenodd" d="M4.98979 3.96431L3.92097 1.18437L2.85826 3.96431H4.98979ZM15.2413 6.9733L15.2354 1.51186L12.9711 6.9733H11.6L9.3297 1.50702V6.9733H6.15359L5.55356 5.41791H2.30218L1.69604 6.9733H0L2.79639 0H5.1165L7.77238 6.60228V0H10.3211L12.3647 4.73055L14.242 0H16.842V6.9733H15.2413ZM19.3273 5.54641V4.15864H22.7556V2.73555H19.3273V1.46746H23.2423L24.9504 3.5001L23.1667 5.54641H19.3273ZM29.9075 7H27.8784L25.9556 4.69099L23.9572 7H17.7717V0.0250172H24.0524L25.9737 2.31131L27.96 0.0250172H30L26.9653 3.51251L29.9075 7Z" fill="white"/>
</svg>
