<svg width="20" height="20" viewBox="0 0 20 20" fill="none" xmlns="http://www.w3.org/2000/svg">
<path d="M11.0434 0.611322C10.6522 0.220015 10.1216 0.00011817 9.56833 0H2.08642C1.53307 0 1.00238 0.219819 0.611099 0.611099C0.219819 1.00238 0 1.53307 0 2.08642V9.56833C0.00011817 10.1216 0.220015 10.6522 0.611322 11.0434L8.95701 19.3891C9.34827 19.7803 9.87887 20 10.4321 20C10.9854 20 11.516 19.7803 11.9072 19.3891L19.3891 11.9072C19.7803 11.516 20 10.9854 20 10.4321C20 9.87887 19.7803 9.34827 19.3891 8.95701L11.0434 0.611322ZM5.21606 7.30248C4.66256 7.30234 4.1318 7.08233 3.74052 6.69086C3.34924 6.29938 3.1295 5.76851 3.12963 5.21501C3.12977 4.66152 3.34978 4.13075 3.74125 3.73947C4.13273 3.34819 4.66361 3.12845 5.2171 3.12859C5.77059 3.12873 6.30136 3.34874 6.69264 3.74021C7.08392 4.13169 7.30366 4.66256 7.30352 5.21606C7.30338 5.76955 7.08338 6.30032 6.6919 6.6916C6.30043 7.08288 5.76955 7.30262 5.21606 7.30248Z" fill="white"/>
</svg>
