<svg width="12" height="14" viewBox="0 0 12 14" fill="none" xmlns="http://www.w3.org/2000/svg">
<path d="M10.9991 5.80005C10.9924 4.49503 10.9388 3.78828 10.5119 3.32726C10.0238 2.80005 9.23811 2.80005 7.66683 2.80005H6.00022C4.42892 2.80005 3.64327 2.80005 3.15513 3.32726C2.66699 3.85446 2.66699 4.70299 2.66699 6.40005V9.40005C2.66699 11.0971 2.66699 11.9456 3.15513 12.4728C3.64327 13 4.42892 13 6.00022 13H7.66683C9.23811 13 10.0238 13 10.5119 12.4728C11.0001 11.9456 11.0001 11.0971 11.0001 9.40005V8.80005" stroke="#AAAAAA" stroke-linecap="round"/>
<path d="M1 5.8V9.4C1 10.3941 1.74617 11.2 2.66661 11.2M9.33306 2.8C9.33306 1.80589 8.58692 1 7.66645 1H5.4443C3.34923 1 2.30171 1 1.65085 1.70294C1.28798 2.09485 1.12742 2.61993 1.05638 3.4" stroke="#AAAAAA" stroke-linecap="round"/>
</svg>
