<svg width="24" height="24" viewBox="0 0 24 24" fill="none" xmlns="http://www.w3.org/2000/svg">
<path d="M24 12C24 14.3734 23.2962 16.6934 21.9776 18.6668C20.6591 20.6402 18.7849 22.1783 16.5922 23.0865C14.3995 23.9948 11.9867 24.2324 9.65892 23.7694C7.33115 23.3064 5.19295 22.1635 3.51472 20.4853C1.83649 18.807 0.693605 16.6689 0.230582 14.3411C-0.232441 12.0133 0.0051994 9.60051 0.913451 7.4078C1.8217 5.21508 3.35977 3.34094 5.33316 2.02236C7.30655 0.703788 9.62663 0 12 0C13.5759 0 15.1363 0.310389 16.5922 0.913445C18.0481 1.5165 19.371 2.40042 20.4853 3.51472C21.5996 4.62902 22.4835 5.95189 23.0866 7.4078C23.6896 8.8637 24 10.4241 24 12ZM19.7757 12.0909C19.7749 10.7429 19.4199 9.41864 18.7463 8.25092C18.0726 7.08321 17.104 6.11299 15.9374 5.43743C14.7708 4.76187 13.4472 4.4047 12.0991 4.40168C10.751 4.39866 9.42578 4.74991 8.25616 5.42023C7.5462 5.82944 6.90567 6.34872 6.35847 6.9587V5.91739C6.35847 5.7582 6.29524 5.60553 6.18267 5.49297C6.07011 5.3804 5.91744 5.31716 5.75825 5.31716C5.59906 5.31716 5.44639 5.3804 5.33382 5.49297C5.22126 5.60553 5.15802 5.7582 5.15802 5.91739V8.4335C5.15842 8.59242 5.22184 8.7447 5.33436 8.85694C5.44688 8.96918 5.59932 9.03221 5.75825 9.03221H8.27132C8.42509 9.02447 8.57002 8.95794 8.67612 8.84636C8.78222 8.73479 8.84139 8.58671 8.84139 8.43274C8.84139 8.27877 8.78222 8.13069 8.67612 8.01911C8.57002 7.90754 8.42509 7.841 8.27132 7.83327H7.18454C7.79332 7.1312 8.54602 6.56831 9.39154 6.18282C10.2371 5.79732 11.1556 5.59824 12.0849 5.59909C13.3684 5.59939 14.6231 5.98026 15.6902 6.69354C16.7572 7.40682 17.5889 8.42049 18.0799 9.60638C18.571 10.7923 18.6994 12.0971 18.4489 13.356C18.1984 14.6149 17.5803 15.7712 16.6727 16.6788C15.7651 17.5864 14.6088 18.2045 13.3499 18.455C12.0911 18.7055 10.7862 18.5771 9.60032 18.086C8.41443 17.595 7.40076 16.7633 6.68748 15.6962C5.9742 14.6291 5.59333 13.3745 5.59303 12.0909C5.59303 11.9318 5.52979 11.7791 5.41723 11.6665C5.30467 11.554 5.152 11.4907 4.99281 11.4907C4.83361 11.4907 4.68094 11.554 4.56838 11.6665C4.45582 11.7791 4.39258 11.9318 4.39258 12.0909C4.39258 13.1011 4.59154 14.1014 4.97812 15.0347C5.36469 15.9679 5.9313 16.8159 6.6456 17.5302C7.3599 18.2445 8.20789 18.8111 9.14117 19.1977C10.0744 19.5843 11.0747 19.7832 12.0849 19.7832C13.0951 19.7832 14.0953 19.5843 15.0286 19.1977C15.9619 18.8111 16.8099 18.2445 17.5242 17.5302C18.2385 16.8159 18.8051 15.9679 19.1916 15.0347C19.5782 14.1014 19.7757 13.1011 19.7757 12.0909ZM12.5563 11.9409V7.89087C12.5485 7.73709 12.482 7.59217 12.3704 7.48606C12.2589 7.37996 12.1108 7.32079 11.9568 7.32079C11.8028 7.32079 11.6548 7.37996 11.5432 7.48606C11.4316 7.59217 11.3651 7.73709 11.3573 7.89087V12.197C11.3571 12.2886 11.378 12.379 11.4182 12.4612C11.4584 12.5434 11.5169 12.6154 11.5892 12.6715L13.9189 14.9996C13.9744 15.0563 14.0406 15.1014 14.1137 15.1323C14.1868 15.1632 14.2652 15.1793 14.3446 15.1797C14.4239 15.1801 14.5025 15.1648 14.5759 15.1346C14.6493 15.1044 14.7159 15.06 14.772 15.0039C14.8281 14.9478 14.8725 14.8812 14.9027 14.8078C14.9329 14.7344 14.9482 14.6558 14.9478 14.5765C14.9474 14.4971 14.9313 14.4187 14.9004 14.3456C14.8695 14.2725 14.8244 14.2063 14.7677 14.1508L12.5563 11.9409Z" fill="#D7DCE4"/>
</svg>
