<svg width="12" height="12" viewBox="0 0 12 12" fill="none" xmlns="http://www.w3.org/2000/svg">
<path d="M6 8.5V5.5" stroke="white" stroke-linecap="round"/>
<path d="M5.99951 3.5C6.27565 3.5 6.49951 3.72386 6.49951 4C6.49951 4.27614 6.27565 4.5 5.99951 4.5C5.72337 4.5 5.49951 4.27614 5.49951 4C5.49951 3.72386 5.72337 3.5 5.99951 3.5Z" fill="white"/>
<path opacity="0.5" d="M1 6C1 3.64298 1 2.46446 1.73223 1.73223C2.46446 1 3.64298 1 6 1C8.357 1 9.53555 1 10.2677 1.73223C11 2.46446 11 3.64298 11 6C11 8.357 11 9.53555 10.2677 10.2677C9.53555 11 8.357 11 6 11C3.64298 11 2.46446 11 1.73223 10.2677C1 9.53555 1 8.357 1 6Z" stroke="white"/>
</svg>
