<svg width="32" height="32" viewBox="0 0 32 32" fill="none" xmlns="http://www.w3.org/2000/svg">
<g filter="url(#filter0_d_30_861)">
<path d="M31 15C31 23.2843 24.2843 30 16 30C7.71573 30 1 23.2843 1 15C1 6.71573 7.71573 0 16 0C24.2843 0 31 6.71573 31 15Z" fill="#1E1E1E"/>
</g>
<path d="M16.0001 6.19592C15.4702 6.19208 14.945 6.29156 14.4563 6.48834C13.9808 6.67491 13.5591 6.94881 13.2076 7.3021V7.30607L13.2062 7.30871C12.8644 7.66465 12.5997 8.09203 12.415 8.57896C12.2262 9.06457 12.1352 9.59649 12.1352 10.1668C12.1352 10.7424 12.2248 11.2796 12.415 11.7665C12.6011 12.2442 12.8658 12.6663 13.2062 13.0235L13.2076 13.0262C13.5577 13.3795 13.9767 13.6573 14.4495 13.8518V13.8558C14.9264 14.0424 15.446 14.1337 15.9932 14.1337C16.5376 14.1337 17.0545 14.0424 17.5328 13.8558V13.8532C18.0055 13.6586 18.4204 13.3808 18.7622 13.0262C19.1137 12.6716 19.3825 12.2455 19.57 11.7665C19.7602 11.2796 19.8511 10.7424 19.8511 10.1655H19.8649C19.8649 9.59649 19.7753 9.06589 19.5851 8.58029C19.4101 8.10702 19.1356 7.67331 18.7788 7.30607C18.4343 6.94957 18.0121 6.67036 17.5424 6.48834C17.0538 6.29139 16.53 6.1919 16.0001 6.19592ZM16.0332 16.784C12.8396 16.784 11.1249 17.0658 9.84997 17.9881C9.21318 18.4512 8.79279 19.0797 8.55571 19.8114C8.31864 20.5431 8.24421 21.1015 8.24146 22.0741L16.0001 22.0767H23.7587C23.7573 21.1029 23.687 20.5431 23.4486 19.8114C23.2115 19.0797 22.7911 18.4525 22.1529 17.9907C20.8807 17.0685 19.2254 16.784 16.0332 16.784Z" fill="white"/>
<defs>
<filter id="filter0_d_30_861" x="0" y="0" width="32" height="32" filterUnits="userSpaceOnUse" color-interpolation-filters="sRGB">
<feFlood flood-opacity="0" result="BackgroundImageFix"/>
<feColorMatrix in="SourceAlpha" type="matrix" values="0 0 0 0 0 0 0 0 0 0 0 0 0 0 0 0 0 0 127 0" result="hardAlpha"/>
<feOffset dy="1"/>
<feGaussianBlur stdDeviation="0.5"/>
<feComposite in2="hardAlpha" operator="out"/>
<feColorMatrix type="matrix" values="0 0 0 0 0 0 0 0 0 0 0 0 0 0 0 0 0 0 0.2 0"/>
<feBlend mode="normal" in2="BackgroundImageFix" result="effect1_dropShadow_30_861"/>
<feBlend mode="normal" in="SourceGraphic" in2="effect1_dropShadow_30_861" result="shape"/>
</filter>
</defs>
</svg>
