<svg width="21" height="21" viewBox="0 0 21 21" fill="none" xmlns="http://www.w3.org/2000/svg">
<path d="M1 15.3615C1 14.0994 1 13.4684 1.28407 13.0048C1.44302 12.7455 1.6611 12.5273 1.92048 12.3684C2.38404 12.0844 3.01507 12.0844 4.27711 12.0844H5.33735C7.15481 12.0844 8.06355 12.0844 8.62815 12.649C9.19277 13.2136 9.19277 14.1223 9.19277 15.9398V17C9.19277 18.2621 9.19277 18.8931 8.90872 19.3566C8.74978 19.616 8.53167 19.8341 8.27229 19.9931C7.80873 20.2771 7.17771 20.2771 5.91566 20.2771C4.02259 20.2771 3.07606 20.2771 2.38072 19.851C1.99165 19.6126 1.66453 19.2855 1.4261 18.8964" stroke="white" stroke-linecap="round"/>
<path d="M20.2771 5.91566C20.2771 7.17771 20.2771 7.80873 19.9931 8.27229C19.8341 8.53167 19.616 8.74978 19.3566 8.90872C18.8931 9.19277 18.2621 9.19277 17 9.19277H15.9398C14.1223 9.19277 13.2136 9.19277 12.649 8.62815C12.0844 8.06355 12.0844 7.15481 12.0844 5.33735V4.27711C12.0844 3.01507 12.0844 2.38404 12.3684 1.92048C12.5273 1.6611 12.7455 1.44302 13.0048 1.28407C13.4684 1 14.0994 1 15.3615 1C17.2546 1 18.2011 1 18.8964 1.4261C19.2855 1.66453 19.6126 1.99165 19.851 2.38072" stroke="white" stroke-linecap="round"/>
<path d="M14.976 5.09636C14.976 4.59958 14.976 4.35119 15.1004 4.17581C15.1443 4.11392 15.1983 4.05989 15.2602 4.01598C15.4356 3.89154 15.684 3.89154 16.1808 3.89154C16.6775 3.89154 16.9259 3.89154 17.1013 4.01598C17.1632 4.05989 17.2172 4.11392 17.2612 4.17581C17.3856 4.35119 17.3856 4.59958 17.3856 5.09636C17.3856 5.59314 17.3856 5.84153 17.2612 6.01691C17.2172 6.0788 17.1632 6.13283 17.1013 6.17674C16.9259 6.30118 16.6775 6.30118 16.1808 6.30118C15.684 6.30118 15.4356 6.30118 15.2602 6.17674C15.1983 6.13283 15.1443 6.0788 15.1004 6.01691C14.976 5.84153 14.976 5.59314 14.976 5.09636Z" fill="white"/>
<path d="M11.3615 20.2771C11.3615 20.6763 11.6851 21 12.0843 21C12.4836 21 12.8072 20.6763 12.8072 20.2771H11.3615ZM17.3855 11.3615H15.4578V12.8072H17.3855V11.3615ZM11.3615 17.3855V20.2771H12.8072V17.3855H11.3615ZM15.4578 11.3615C14.7961 11.3615 14.2453 11.3606 13.801 11.4058C13.3446 11.4521 12.9212 11.5532 12.5395 11.8082L13.3427 13.0103C13.4472 12.9404 13.6053 12.8789 13.9473 12.8441C14.3014 12.8081 14.766 12.8072 15.4578 12.8072V11.3615ZM12.8072 15.4578C12.8072 14.766 12.8081 14.3014 12.8441 13.9473C12.8789 13.6053 12.9404 13.4472 13.0103 13.3427L11.8082 12.5395C11.5532 12.9212 11.4521 13.3446 11.4058 13.801C11.3606 14.2453 11.3615 14.7961 11.3615 15.4578H12.8072ZM12.5395 11.8082C12.25 12.0015 12.0015 12.25 11.8082 12.5395L13.0103 13.3427C13.0982 13.2111 13.2111 13.0982 13.3427 13.0103L12.5395 11.8082Z" fill="white"/>
<path d="M21.0001 12.0843C21.0001 11.6851 20.6764 11.3615 20.2772 11.3615C19.8779 11.3615 19.5543 11.6851 19.5543 12.0843H21.0001ZM15.4579 21H17.3856V19.5542H15.4579V21ZM21.0001 15.4578V12.0843H19.5543V15.4578H21.0001ZM17.3856 21C17.8248 21 18.1904 21.0004 18.4896 20.98C18.7952 20.9591 19.0839 20.9142 19.3638 20.7983L18.8106 19.4625C18.7362 19.4933 18.6232 19.5217 18.3912 19.5375C18.1526 19.5538 17.8446 19.5542 17.3856 19.5542V21ZM19.5543 17.3855C19.5543 17.8445 19.5539 18.1526 19.5376 18.3911C19.5218 18.6231 19.4934 18.7361 19.4625 18.8105L20.7983 19.3638C20.9143 19.0839 20.9592 18.7952 20.98 18.4895C21.0004 18.1904 21.0001 17.8248 21.0001 17.3855H19.5543ZM19.3638 20.7983C20.0133 20.5293 20.5293 20.0132 20.7983 19.3638L19.4625 18.8105C19.3403 19.1056 19.1057 19.3401 18.8106 19.4625L19.3638 20.7983Z" fill="white"/>
<path d="M1 5.91566C1 4.02259 1 3.07606 1.4261 2.38072C1.66453 1.99165 1.99165 1.66453 2.38072 1.4261C3.07606 1 4.02259 1 5.91566 1C7.17771 1 7.80873 1 8.27229 1.28407C8.53167 1.44302 8.74978 1.6611 8.90872 1.92048C9.19277 2.38404 9.19277 3.01507 9.19277 4.27711V5.33735C9.19277 7.15481 9.19277 8.06355 8.62815 8.62815C8.06355 9.19277 7.15481 9.19277 5.33735 9.19277H4.27711C3.01507 9.19277 2.38404 9.19277 1.92048 8.90872C1.6611 8.74978 1.44302 8.53167 1.28407 8.27229C1 7.80873 1 7.17771 1 5.91566Z" stroke="white"/>
<path d="M3.8916 5.09636C3.8916 4.59958 3.8916 4.35119 4.01604 4.17581C4.05995 4.11392 4.11398 4.05989 4.17587 4.01598C4.35125 3.89154 4.59964 3.89154 5.09642 3.89154C5.5932 3.89154 5.84159 3.89154 6.01697 4.01598C6.07886 4.05989 6.13289 4.11392 6.1768 4.17581C6.30124 4.35119 6.30124 4.59958 6.30124 5.09636C6.30124 5.59314 6.30124 5.84153 6.1768 6.01691C6.13289 6.0788 6.07886 6.13283 6.01697 6.17674C5.84159 6.30118 5.5932 6.30118 5.09642 6.30118C4.59964 6.30118 4.35125 6.30118 4.17587 6.17674C4.11398 6.13283 4.05995 6.0788 4.01604 6.01691C3.8916 5.84153 3.8916 5.59314 3.8916 5.09636Z" fill="white"/>
<path d="M3.8916 16.1807C3.8916 15.6839 3.8916 15.4356 4.01604 15.2601C4.05995 15.1983 4.11398 15.1443 4.17587 15.1003C4.35125 14.9759 4.59964 14.9759 5.09642 14.9759C5.5932 14.9759 5.84159 14.9759 6.01697 15.1003C6.07886 15.1443 6.13289 15.1983 6.1768 15.2601C6.30124 15.4356 6.30124 15.6839 6.30124 16.1807C6.30124 16.6775 6.30124 16.9259 6.1768 17.1013C6.13289 17.1632 6.07886 17.2171 6.01697 17.2611C5.84159 17.3855 5.5932 17.3855 5.09642 17.3855C4.59964 17.3855 4.35125 17.3855 4.17587 17.2611C4.11398 17.2171 4.05995 17.1632 4.01604 17.1013C3.8916 16.9259 3.8916 16.6775 3.8916 16.1807Z" fill="white"/>
<path d="M14.494 16.1807C14.494 15.5039 14.494 15.1655 14.6564 14.9223C14.7268 14.817 14.8171 14.7267 14.9224 14.6564C15.1655 14.494 15.5039 14.494 16.1808 14.494C16.8576 14.494 17.196 14.494 17.4392 14.6564C17.5444 14.7267 17.6347 14.817 17.7051 14.9223C17.8675 15.1655 17.8675 15.5039 17.8675 16.1807C17.8675 16.8575 17.8675 17.1959 17.7051 17.4391C17.6347 17.5444 17.5444 17.6347 17.4392 17.705C17.196 17.8675 16.8576 17.8675 16.1808 17.8675C15.5039 17.8675 15.1655 17.8675 14.9224 17.705C14.8171 17.6347 14.7268 17.5444 14.6564 17.4391C14.494 17.1959 14.494 16.8575 14.494 16.1807Z" fill="white"/>
</svg>
