<svg width="20" height="20" viewBox="0 0 20 20" fill="none" xmlns="http://www.w3.org/2000/svg">
<path fill-rule="evenodd" clip-rule="evenodd" d="M14.8074 8.84414H18.3333C18.3333 6.41757 16.637 5 13.763 5H6.23703C3.36295 5 1.66666 6.41757 1.66666 8.81319V14.044C1.66666 16.4396 3.36295 17.8571 6.23703 17.8571H13.763C16.637 17.8571 18.3333 16.4396 18.3333 14.044V13.8211H14.8074C13.171 13.8211 11.8444 12.7125 11.8444 11.345C11.8444 9.97749 13.171 8.8689 14.8074 8.8689V8.84414ZM14.8074 9.90887H17.7111C18.0547 9.90887 18.3333 10.1417 18.3333 10.4288V12.2364C18.3293 12.5222 18.0531 12.753 17.7111 12.7564H14.8741C14.0456 12.7657 13.3212 12.2917 13.1333 11.6174C13.0392 11.1988 13.1713 10.7668 13.4942 10.4373C13.8171 10.1078 14.2978 9.91434 14.8074 9.90887ZM14.9333 11.8093H15.2074C15.5592 11.8093 15.8444 11.5709 15.8444 11.2769C15.8444 10.9829 15.5592 10.7445 15.2074 10.7445H14.9333C14.7651 10.7429 14.603 10.7976 14.4833 10.8965C14.3636 10.9953 14.2963 11.1301 14.2963 11.2707C14.2963 11.5658 14.5803 11.8059 14.9333 11.8093ZM5.6148 8.84414H10.3185C10.6703 8.84414 10.9555 8.6058 10.9555 8.31178C10.9555 8.01777 10.6703 7.77942 10.3185 7.77942H5.6148C5.26585 7.7794 4.98183 8.014 4.97777 8.30559C4.97774 8.60062 5.26178 8.84075 5.6148 8.84414Z" fill="white"/>
<path d="M9.50373 0.193857L6.86921 2.65488C6.59761 2.90772 6.59761 3.3207 6.87826 3.57354C7.14986 3.82639 7.59348 3.82639 7.86508 3.57354L9.30456 2.22504L9.30456 5.71429L10.6988 5.71429L10.6988 2.22504L12.1383 3.57354C12.4099 3.82639 12.8535 3.82639 13.1251 3.57354C13.2609 3.44712 13.3333 3.27856 13.3333 3.11C13.3333 2.94986 13.2609 2.7813 13.1251 2.65488L10.4905 0.193857C10.3638 0.0674342 10.1827 8.92817e-06 10.0017 8.93495e-06C9.81154 8.94208e-06 9.63953 0.0674342 9.50373 0.193857Z" fill="white"/>
</svg>
