<svg width="24" height="24" viewBox="0 0 24 24" fill="none" xmlns="http://www.w3.org/2000/svg">
<path fill-rule="evenodd" clip-rule="evenodd" d="M18.7304 7.47725H23.6667C23.6667 3.23074 21.2919 0.75 17.2682 0.75H6.73186C2.70816 0.75 0.333344 3.23074 0.333344 7.42309V16.5769C0.333344 20.7693 2.70816 23.25 6.73186 23.25H17.2682C21.2919 23.25 23.6667 20.7693 23.6667 16.5769V16.1869H18.7304C16.4394 16.1869 14.5822 14.2469 14.5822 11.8538C14.5822 9.46061 16.4394 7.52058 18.7304 7.52058V7.47725ZM18.7304 9.34052H22.7956C23.2767 9.34052 23.6667 9.74792 23.6667 10.2505V13.4137C23.6611 13.9138 23.2743 14.3178 22.7956 14.3237H18.8237C17.6639 14.34 16.6497 13.5105 16.3867 12.3304C16.2549 11.5979 16.4399 10.842 16.8919 10.2653C17.344 9.68859 18.0169 9.35009 18.7304 9.34052ZM18.9067 12.6662H19.2904C19.7829 12.6662 20.1822 12.2491 20.1822 11.7346C20.1822 11.2201 19.7829 10.803 19.2904 10.803H18.9067C18.6711 10.8001 18.4442 10.8958 18.2767 11.0688C18.1091 11.2418 18.0148 11.4777 18.0148 11.7238C18.0148 12.2401 18.4124 12.6603 18.9067 12.6662ZM5.86075 7.47725H12.4459C12.9385 7.47725 13.3378 7.06014 13.3378 6.54562C13.3378 6.03109 12.9385 5.61399 12.4459 5.61399H5.86075C5.37222 5.61395 4.97458 6.02449 4.9689 6.53479C4.96887 7.05109 5.36652 7.47132 5.86075 7.47725Z" fill="url(#paint0_linear_72_751)"/>
<defs>
<linearGradient id="paint0_linear_72_751" x1="12" y1="0.75" x2="12" y2="23.25" gradientUnits="userSpaceOnUse">
<stop stop-color="#387CFF"/>
<stop offset="1" stop-color="#00247D"/>
</linearGradient>
</defs>
</svg>
